# xmcd CD database file
#
# Track frame offsets:
#	150
#	29400
#	56925
#	98062
#	128174
#	149174
#	176399
#	226049
#	259049
#
# Disc length: 4065 seconds
#
# Revision: 0
# Processed by: cddbd v1.5.2PL0 Copyright (c) Steve Scherf et al.
# Submitted via: CDex 1.51
#
DISCID=7b0fdf09
DTITLE=Wang Dang Doodle - Live au Casino
DYEAR=1900
DGENRE=Blues
TTITLE0=The River
TTITLE1=Teenie Weenie Bit
TTITLE2=Mustang Sally Play That Funky Music
TTITLE3=Roadhouse Blues
TTITLE4=Josie
TTITLE5=House Is A Rocking
TTITLE6=Medley Led Zeppelin
TTITLE7=Start It Up
TTITLE8=Jungle Boogie
EXTD=
EXTT0=
EXTT1=
EXTT2=
EXTT3=
EXTT4=
EXTT5=
EXTT6=
EXTT7=
EXTT8=
PLAYORDER=
